<?xml version="1.0"?>
<svg xmlns="http://www.w3.org/2000/svg" viewBox="0 0 32 32">
    <path style="text-indent:0;text-align:start;line-height:normal;text-transform:none;block-progression:tb;-inkscape-font-specification:Bitstream Vera Sans" d="M 15 2 C 13.618911 2 12.466988 2.9700225 12.125 4.25 C 11.773916 4.1044091 11.400961 4 11 4 C 9.3550302 4 8 5.3550302 8 7 L 8 16.6875 C 7.1984379 17.21082 6.3310877 18.185918 6.0625 19.71875 C 5.8533357 20.914155 6.08107 21.966349 6.25 22.53125 A 1.0001 1.0001 0 0 0 6.25 22.5625 L 7.03125 25.0625 C 7.9342807 27.994146 10.651011 30 13.71875 30 L 19 30 C 22.854334 30 26 26.854334 26 23 L 26 15 A 1.0001 1.0001 0 0 0 26 14.8125 L 26 13 C 26 11.35503 24.64497 10 23 10 C 22.647017 10 22.315758 10.073236 22 10.1875 L 22 7 C 22 5.3550302 20.64497 4 19 4 C 18.599039 4 18.226084 4.1044091 17.875 4.25 C 17.533012 2.9700225 16.381089 2 15 2 z M 15 4 C 15.56503 4 16 4.4349698 16 5 L 16 7 L 16 14 L 18 14 L 18 7 C 18 6.4349698 18.43497 6 19 6 C 19.56503 6 20 6.4349698 20 7 L 20 14 L 20 16 C 20 17.64497 21.35503 19 23 19 C 23.352983 19 23.684242 18.926764 24 18.8125 L 24 23 C 24 25.773666 21.773666 28 19 28 L 13.71875 28 C 11.520489 28 9.5844693 26.569104 8.9375 24.46875 L 8.1875 21.96875 C 8.10643 21.697651 7.9416643 20.753095 8.0625 20.0625 C 8.2507761 18.988007 8.7206304 18.573134 9.15625 18.3125 C 9.5918696 18.051866 9.90625 18.03125 9.90625 18.03125 A 1.0001 1.0001 0 0 0 9.96875 18.03125 L 16.40625 17.1875 A 1.0001 1.0001 0 0 0 16.5 17.15625 C 17.02739 17.030538 17.530553 17.347673 17.65625 17.875 C 17.73331 18.198274 17.693 18.365195 17.59375 18.53125 C 17.4945 18.697305 17.287378 18.907449 16.84375 19.0625 L 12 20.3125 A 1.0001 1.0001 0 0 0 11.375 21.75 L 12.28125 23.40625 A 1.0001221 1.0001221 0 1 0 14.03125 22.4375 L 13.75 21.9375 L 17.4375 20.96875 A 1.0001 1.0001 0 0 0 17.53125 20.9375 C 18.303622 20.667551 18.927004 20.207445 19.3125 19.5625 C 19.697996 18.917555 19.798942 18.135976 19.625 17.40625 C 19.256862 15.861829 17.701388 14.939542 16.15625 15.25 L 16.15625 15.1875 L 10 16 L 10 7 C 10 6.4349698 10.43497 6 11 6 C 11.56503 6 12 6.4349698 12 7 L 12 14 L 14 14 L 14 7 L 14 5 C 14 4.4349698 14.43497 4 15 4 z M 23 12 C 23.56503 12 24 12.43497 24 13 L 24 14.8125 A 1.0001 1.0001 0 0 0 24 15 L 24 16 C 24 16.56503 23.56503 17 23 17 C 22.43497 17 22 16.56503 22 16 L 22 13 C 22 12.43497 22.43497 12 23 12 z" overflow="visible" font-family="Bitstream Vera Sans"/>
</svg>
