<?xml version="1.0"?>
<svg xmlns="http://www.w3.org/2000/svg" viewBox="0 0 32 32">
    <path style="text-indent:0;text-align:start;line-height:normal;text-transform:none;block-progression:tb;-inkscape-font-specification:Sans" d="M 16 6 C 14.937526 6 14.002321 6.5626655 13.46875 7.40625 C 13.032541 7.1574694 12.533567 7 12 7 C 10.35503 7 9 8.3550302 9 10 L 9 13.65625 L 8.875 13.8125 C 8.8003334 13.89779 8.7309995 13.975146 8.65625 14.0625 C 8.1460735 14.658708 7.6558166 15.293495 7.21875 15.9375 L 6.90625 16.34375 C 6.4807759 16.893984 6.2193672 17.53385 6.09375 18.1875 C 6.0763153 18.261279 6.0432122 18.330913 6.03125 18.40625 C 5.8560471 19.651523 6.2250264 20.949093 7.09375 21.9375 L 9.46875 24.625 C 10.797234 26.137769 12.705767 27 14.71875 27 L 20 27 C 23.854334 27 27 23.854334 27 20 L 27 11 C 27 9.3550302 25.64497 8 24 8 C 23.466433 8 22.967459 8.1574694 22.53125 8.40625 C 21.997679 7.5626655 21.062474 7 20 7 C 19.466433 7 18.967459 7.1574694 18.53125 7.40625 C 17.997679 6.5626655 17.062474 6 16 6 z M 16 8 C 16.56503 8 17 8.4349698 17 9 L 17 10 L 17 11 L 17 11.1875 C 16.684231 11.073248 16.353023 11 16 11 L 15 11 L 15 10 L 15 9 C 15 8.4349698 15.43497 8 16 8 z M 12 9 C 12.56503 9 13 9.4349698 13 10 L 13 11 L 12.15625 11 L 12 11 L 11.59375 11 L 11.3125 11.28125 C 11.3125 11.28125 11.086247 11.511601 11 11.59375 L 11 10 C 11 9.4349698 11.43497 9 12 9 z M 20 9 C 20.56503 9 21 9.4349698 21 10 L 21 11 L 21 12 L 21 13 C 21 13.56503 20.56503 14 20 14 C 19.43497 14 19 13.56503 19 13 L 19 12 L 19 10 C 19 9.4349698 19.43497 9 20 9 z M 24 10 C 24.56503 10 25 10.43497 25 11 L 25 13 C 25 13.56503 24.56503 14 24 14 C 23.43497 14 23 13.56503 23 13 L 23 12 L 23 11 C 23 10.43497 23.43497 10 24 10 z M 12.4375 13 L 16 13 C 16.560842 13 17 13.439158 17 14 C 17 14.560842 16.560842 15 16 15 L 13.375 15 L 12.875 15 L 12.59375 15.375 L 10.25 18.34375 L 11.8125 19.59375 L 13.65625 17.28125 C 14.017074 17.450154 14.426979 17.698483 14.875 18.0625 C 15.941898 18.929355 17 20.346188 17 23 L 19 23 C 19 20.131325 17.856261 18.155893 16.59375 16.9375 C 17.40423 16.769732 18.100974 16.274071 18.53125 15.59375 C 18.967459 15.842531 19.466433 16 20 16 C 20.766846 16 21.467077 15.699798 22 15.21875 C 22.532923 15.699798 23.233154 16 24 16 C 24.352983 16 24.684242 15.926764 25 15.8125 L 25 20 C 25 22.773666 22.773666 25 20 25 L 14.71875 25 C 13.279733 25 11.918266 24.393731 10.96875 23.3125 L 8.59375 20.59375 C 8.1657002 20.106728 7.9635436 19.506488 8 18.90625 C 7.999262 18.898028 8.0285165 18.831273 8.03125 18.8125 C 8.0343247 18.782196 8.0269743 18.748964 8.03125 18.71875 C 8.07953 18.500278 8.2293279 18.077731 8.5625 17.53125 C 8.6052749 17.461089 8.6722798 17.384213 8.71875 17.3125 L 10.1875 15.375 C 11.292359 14.083829 12.215743 13.212592 12.4375 13 z" overflow="visible" font-family="Sans"/>
</svg>
